G04 PROTEUS GERBER X2 FILE*
%TF.GenerationSoftware,Labcenter,Proteus,8.6-SP2-Build23525*%
%TF.CreationDate,2017-06-21T11:24:34+00:00*%
%TF.FileFunction,Legend,Top*%
%TF.FilePolarity,Positive*%
%TF.Part,Single*%
%FSLAX45Y45*%
%MOMM*%
G01*
%TA.AperFunction,Material*%
%ADD70C,0.203200*%
%TD.AperFunction*%
D70*
X-7415100Y+3707200D02*
X-7415100Y+3199200D01*
X-7250000Y+3783400D02*
X-7288298Y+3778638D01*
X-7327788Y+3764350D01*
X-7369658Y+3740538D01*
X-7415100Y+3707200D01*
X-7250000Y+3783400D02*
X-7185082Y+3780769D01*
X-7125047Y+3764288D01*
X-7071058Y+3735361D01*
X-7024278Y+3695393D01*
X-6985869Y+3645788D01*
X-6956995Y+3587951D01*
X-6938818Y+3523287D01*
X-6932500Y+3453200D01*
X-7250000Y+3123000D02*
X-7288298Y+3127762D01*
X-7327788Y+3142050D01*
X-7369658Y+3165862D01*
X-7415100Y+3199200D01*
X-7250000Y+3123000D02*
X-7185082Y+3125631D01*
X-7125047Y+3142112D01*
X-7071058Y+3171039D01*
X-7024278Y+3211007D01*
X-6985869Y+3260612D01*
X-6956995Y+3318449D01*
X-6938818Y+3383113D01*
X-6932500Y+3453200D01*
X-6861380Y+3326200D02*
X-6891860Y+3357950D01*
X-6891860Y+3389700D01*
X-6861380Y+3421450D01*
X-6830900Y+3421450D01*
X-6800420Y+3389700D01*
X-6800420Y+3357950D01*
X-6830900Y+3326200D01*
X-6861380Y+3326200D01*
X-6830900Y+3389700D02*
X-6800420Y+3421450D01*
X-6876620Y+3469075D02*
X-6891860Y+3484950D01*
X-6891860Y+3532575D01*
X-6876620Y+3548450D01*
X-6861380Y+3548450D01*
X-6846140Y+3532575D01*
X-6830900Y+3548450D01*
X-6815660Y+3548450D01*
X-6800420Y+3532575D01*
X-6800420Y+3484950D01*
X-6815660Y+3469075D01*
X-6846140Y+3500825D02*
X-6846140Y+3532575D01*
X-6182500Y+3796100D02*
X-6258700Y+3796100D01*
X-6258700Y+3161100D01*
X-6182500Y+3161100D01*
X-6258700Y+3516700D02*
X-6309500Y+3516700D01*
X-6309500Y+3440500D01*
X-6258700Y+3440500D01*
X-6258700Y+3745300D02*
X-6334900Y+3745300D01*
X-6334900Y+3681800D01*
X-6258700Y+3681800D01*
X-6258700Y+3211900D02*
X-6334900Y+3211900D01*
X-6334900Y+3275400D01*
X-6258700Y+3275400D02*
X-6334900Y+3275400D01*
X-6170435Y+3897700D02*
X-6138685Y+3928180D01*
X-6106935Y+3928180D01*
X-6075185Y+3897700D01*
X-6075185Y+3867220D01*
X-6106935Y+3836740D01*
X-6138685Y+3836740D01*
X-6170435Y+3867220D01*
X-6170435Y+3897700D01*
X-6106935Y+3867220D02*
X-6075185Y+3836740D01*
X-6027560Y+3912940D02*
X-6011685Y+3928180D01*
X-5964060Y+3928180D01*
X-5948185Y+3912940D01*
X-5948185Y+3897700D01*
X-5964060Y+3882460D01*
X-6011685Y+3882460D01*
X-6027560Y+3867220D01*
X-6027560Y+3836740D01*
X-5948185Y+3836740D01*
X-6182500Y+2296100D02*
X-6258700Y+2296100D01*
X-6258700Y+1661100D01*
X-6182500Y+1661100D01*
X-6258700Y+2016700D02*
X-6309500Y+2016700D01*
X-6309500Y+1940500D01*
X-6258700Y+1940500D01*
X-6258700Y+2245300D02*
X-6334900Y+2245300D01*
X-6334900Y+2181800D01*
X-6258700Y+2181800D01*
X-6258700Y+1711900D02*
X-6334900Y+1711900D01*
X-6334900Y+1775400D01*
X-6258700Y+1775400D02*
X-6334900Y+1775400D01*
X-6170435Y+2397700D02*
X-6138685Y+2428180D01*
X-6106935Y+2428180D01*
X-6075185Y+2397700D01*
X-6075185Y+2367220D01*
X-6106935Y+2336740D01*
X-6138685Y+2336740D01*
X-6170435Y+2367220D01*
X-6170435Y+2397700D01*
X-6106935Y+2367220D02*
X-6075185Y+2336740D01*
X-5948185Y+2428180D02*
X-6027560Y+2428180D01*
X-6027560Y+2397700D01*
X-5964060Y+2397700D01*
X-5948185Y+2382460D01*
X-5948185Y+2351980D01*
X-5964060Y+2336740D01*
X-6011685Y+2336740D01*
X-6027560Y+2351980D01*
X-7415100Y+2207200D02*
X-7415100Y+1699200D01*
X-7250000Y+2283400D02*
X-7288298Y+2278638D01*
X-7327788Y+2264350D01*
X-7369658Y+2240538D01*
X-7415100Y+2207200D01*
X-7250000Y+2283400D02*
X-7185082Y+2280769D01*
X-7125047Y+2264288D01*
X-7071058Y+2235361D01*
X-7024278Y+2195393D01*
X-6985869Y+2145788D01*
X-6956995Y+2087951D01*
X-6938818Y+2023287D01*
X-6932500Y+1953200D01*
X-7250000Y+1623000D02*
X-7288298Y+1627762D01*
X-7327788Y+1642050D01*
X-7369658Y+1665862D01*
X-7415100Y+1699200D01*
X-7250000Y+1623000D02*
X-7185082Y+1625631D01*
X-7125047Y+1642112D01*
X-7071058Y+1671039D01*
X-7024278Y+1711007D01*
X-6985869Y+1760612D01*
X-6956995Y+1818449D01*
X-6938818Y+1883113D01*
X-6932500Y+1953200D01*
X-6861380Y+1826200D02*
X-6891860Y+1857950D01*
X-6891860Y+1889700D01*
X-6861380Y+1921450D01*
X-6830900Y+1921450D01*
X-6800420Y+1889700D01*
X-6800420Y+1857950D01*
X-6830900Y+1826200D01*
X-6861380Y+1826200D01*
X-6830900Y+1889700D02*
X-6800420Y+1921450D01*
X-6876620Y+2048450D02*
X-6891860Y+2032575D01*
X-6891860Y+1984950D01*
X-6876620Y+1969075D01*
X-6815660Y+1969075D01*
X-6800420Y+1984950D01*
X-6800420Y+2032575D01*
X-6815660Y+2048450D01*
X-6830900Y+2048450D01*
X-6846140Y+2032575D01*
X-6846140Y+1969075D01*
X-6182500Y+796100D02*
X-6258700Y+796100D01*
X-6258700Y+161100D01*
X-6182500Y+161100D01*
X-6258700Y+516700D02*
X-6309500Y+516700D01*
X-6309500Y+440500D01*
X-6258700Y+440500D01*
X-6258700Y+745300D02*
X-6334900Y+745300D01*
X-6334900Y+681800D01*
X-6258700Y+681800D01*
X-6258700Y+211900D02*
X-6334900Y+211900D01*
X-6334900Y+275400D01*
X-6258700Y+275400D02*
X-6334900Y+275400D01*
X-6170435Y+897700D02*
X-6138685Y+928180D01*
X-6106935Y+928180D01*
X-6075185Y+897700D01*
X-6075185Y+867220D01*
X-6106935Y+836740D01*
X-6138685Y+836740D01*
X-6170435Y+867220D01*
X-6170435Y+897700D01*
X-6106935Y+867220D02*
X-6075185Y+836740D01*
X-6011685Y+882460D02*
X-6027560Y+897700D01*
X-6027560Y+912940D01*
X-6011685Y+928180D01*
X-5964060Y+928180D01*
X-5948185Y+912940D01*
X-5948185Y+897700D01*
X-5964060Y+882460D01*
X-6011685Y+882460D01*
X-6027560Y+867220D01*
X-6027560Y+851980D01*
X-6011685Y+836740D01*
X-5964060Y+836740D01*
X-5948185Y+851980D01*
X-5948185Y+867220D01*
X-5964060Y+882460D01*
X-7415100Y+707200D02*
X-7415100Y+199200D01*
X-7250000Y+783400D02*
X-7288298Y+778638D01*
X-7327788Y+764350D01*
X-7369658Y+740538D01*
X-7415100Y+707200D01*
X-7250000Y+783400D02*
X-7185082Y+780769D01*
X-7125047Y+764288D01*
X-7071058Y+735361D01*
X-7024278Y+695393D01*
X-6985869Y+645788D01*
X-6956995Y+587951D01*
X-6938818Y+523287D01*
X-6932500Y+453200D01*
X-7250000Y+123000D02*
X-7288298Y+127762D01*
X-7327788Y+142050D01*
X-7369658Y+165862D01*
X-7415100Y+199200D01*
X-7250000Y+123000D02*
X-7185082Y+125631D01*
X-7125047Y+142112D01*
X-7071058Y+171039D01*
X-7024278Y+211007D01*
X-6985869Y+260612D01*
X-6956995Y+318449D01*
X-6938818Y+383113D01*
X-6932500Y+453200D01*
X-6861380Y+326200D02*
X-6891860Y+357950D01*
X-6891860Y+389700D01*
X-6861380Y+421450D01*
X-6830900Y+421450D01*
X-6800420Y+389700D01*
X-6800420Y+357950D01*
X-6830900Y+326200D01*
X-6861380Y+326200D01*
X-6830900Y+389700D02*
X-6800420Y+421450D01*
X-6861380Y+548450D02*
X-6846140Y+532575D01*
X-6846140Y+484950D01*
X-6861380Y+469075D01*
X-6876620Y+469075D01*
X-6891860Y+484950D01*
X-6891860Y+532575D01*
X-6876620Y+548450D01*
X-6815660Y+548450D01*
X-6800420Y+532575D01*
X-6800420Y+484950D01*
X-7373000Y+2750000D02*
X-7246000Y+2750000D01*
X-7246000Y+2686500D02*
X-6738000Y+2686500D01*
X-6738000Y+2813500D01*
X-7246000Y+2813500D01*
X-7246000Y+2686500D01*
X-6738000Y+2750000D02*
X-6611000Y+2750000D01*
X-7119000Y+2854140D02*
X-7119000Y+2945580D01*
X-7039625Y+2945580D01*
X-7023750Y+2930340D01*
X-7023750Y+2915100D01*
X-7039625Y+2899860D01*
X-7119000Y+2899860D01*
X-7039625Y+2899860D02*
X-7023750Y+2884620D01*
X-7023750Y+2854140D01*
X-6960250Y+2915100D02*
X-6928500Y+2945580D01*
X-6928500Y+2854140D01*
X-7750000Y+2877000D02*
X-7750000Y+3004000D01*
X-7813500Y+3004000D02*
X-7686500Y+3004000D01*
X-7686500Y+3512000D01*
X-7813500Y+3512000D01*
X-7813500Y+3004000D01*
X-7750000Y+3512000D02*
X-7750000Y+3639000D01*
X-7854140Y+3131000D02*
X-7945580Y+3131000D01*
X-7945580Y+3210375D01*
X-7930340Y+3226250D01*
X-7915100Y+3226250D01*
X-7899860Y+3210375D01*
X-7899860Y+3131000D01*
X-7899860Y+3210375D02*
X-7884620Y+3226250D01*
X-7854140Y+3226250D01*
X-7930340Y+3273875D02*
X-7945580Y+3289750D01*
X-7945580Y+3337375D01*
X-7930340Y+3353250D01*
X-7915100Y+3353250D01*
X-7899860Y+3337375D01*
X-7899860Y+3289750D01*
X-7884620Y+3273875D01*
X-7854140Y+3273875D01*
X-7854140Y+3353250D01*
X-8492000Y+3377000D02*
X-8365000Y+3377000D01*
X-8365000Y+2869000D01*
X-8873000Y+2869000D01*
X-8873000Y+3377000D01*
X-8746000Y+3377000D01*
X-8619000Y+3250000D02*
X-8593124Y+3252436D01*
X-8569152Y+3259485D01*
X-8547562Y+3270762D01*
X-8528830Y+3285878D01*
X-8513431Y+3304446D01*
X-8501842Y+3326081D01*
X-8494540Y+3350394D01*
X-8492000Y+3377000D01*
X-8619000Y+3250000D02*
X-8645606Y+3252436D01*
X-8669919Y+3259485D01*
X-8691554Y+3270762D01*
X-8710122Y+3285878D01*
X-8725238Y+3304446D01*
X-8736515Y+3326081D01*
X-8743564Y+3350394D01*
X-8746000Y+3377000D01*
X-8746000Y+3509080D02*
X-8746000Y+3432880D01*
X-8730125Y+3417640D01*
X-8666625Y+3417640D01*
X-8650750Y+3432880D01*
X-8650750Y+3509080D01*
X-8587250Y+3478600D02*
X-8555500Y+3509080D01*
X-8555500Y+3417640D01*
X-8111000Y+3750000D02*
X-8238000Y+3750000D01*
X-8746000Y+3686500D02*
X-8238000Y+3686500D01*
X-8238000Y+3813500D01*
X-8746000Y+3813500D01*
X-8746000Y+3686500D01*
X-8746000Y+3750000D02*
X-8873000Y+3750000D01*
X-8619000Y+3554420D02*
X-8619000Y+3645860D01*
X-8539625Y+3645860D01*
X-8523750Y+3630620D01*
X-8523750Y+3615380D01*
X-8539625Y+3600140D01*
X-8619000Y+3600140D01*
X-8539625Y+3600140D02*
X-8523750Y+3584900D01*
X-8523750Y+3554420D01*
X-8476125Y+3630620D02*
X-8460250Y+3645860D01*
X-8412625Y+3645860D01*
X-8396750Y+3630620D01*
X-8396750Y+3615380D01*
X-8412625Y+3600140D01*
X-8396750Y+3584900D01*
X-8396750Y+3569660D01*
X-8412625Y+3554420D01*
X-8460250Y+3554420D01*
X-8476125Y+3569660D01*
X-8444375Y+3600140D02*
X-8412625Y+3600140D01*
X-7373000Y+1250000D02*
X-7246000Y+1250000D01*
X-7246000Y+1186500D02*
X-6738000Y+1186500D01*
X-6738000Y+1313500D01*
X-7246000Y+1313500D01*
X-7246000Y+1186500D01*
X-6738000Y+1250000D02*
X-6611000Y+1250000D01*
X-7119000Y+1354140D02*
X-7119000Y+1445580D01*
X-7039625Y+1445580D01*
X-7023750Y+1430340D01*
X-7023750Y+1415100D01*
X-7039625Y+1399860D01*
X-7119000Y+1399860D01*
X-7039625Y+1399860D02*
X-7023750Y+1384620D01*
X-7023750Y+1354140D01*
X-6896750Y+1384620D02*
X-6992000Y+1384620D01*
X-6928500Y+1445580D01*
X-6928500Y+1354140D01*
X-7373000Y-250000D02*
X-7246000Y-250000D01*
X-7246000Y-313500D02*
X-6738000Y-313500D01*
X-6738000Y-186500D01*
X-7246000Y-186500D01*
X-7246000Y-313500D01*
X-6738000Y-250000D02*
X-6611000Y-250000D01*
X-7119000Y-145860D02*
X-7119000Y-54420D01*
X-7039625Y-54420D01*
X-7023750Y-69660D01*
X-7023750Y-84900D01*
X-7039625Y-100140D01*
X-7119000Y-100140D01*
X-7039625Y-100140D02*
X-7023750Y-115380D01*
X-7023750Y-145860D01*
X-6976125Y-54420D02*
X-6896750Y-54420D01*
X-6896750Y-69660D01*
X-6976125Y-145860D01*
X-7750000Y+1377000D02*
X-7750000Y+1504000D01*
X-7813500Y+1504000D02*
X-7686500Y+1504000D01*
X-7686500Y+2012000D01*
X-7813500Y+2012000D01*
X-7813500Y+1504000D01*
X-7750000Y+2012000D02*
X-7750000Y+2139000D01*
X-7854140Y+1631000D02*
X-7945580Y+1631000D01*
X-7945580Y+1710375D01*
X-7930340Y+1726250D01*
X-7915100Y+1726250D01*
X-7899860Y+1710375D01*
X-7899860Y+1631000D01*
X-7899860Y+1710375D02*
X-7884620Y+1726250D01*
X-7854140Y+1726250D01*
X-7945580Y+1853250D02*
X-7945580Y+1773875D01*
X-7915100Y+1773875D01*
X-7915100Y+1837375D01*
X-7899860Y+1853250D01*
X-7869380Y+1853250D01*
X-7854140Y+1837375D01*
X-7854140Y+1789750D01*
X-7869380Y+1773875D01*
X-8127000Y+2250000D02*
X-8254000Y+2250000D01*
X-8762000Y+2186500D02*
X-8254000Y+2186500D01*
X-8254000Y+2313500D01*
X-8762000Y+2313500D01*
X-8762000Y+2186500D01*
X-8762000Y+2250000D02*
X-8889000Y+2250000D01*
X-8635000Y+2054420D02*
X-8635000Y+2145860D01*
X-8555625Y+2145860D01*
X-8539750Y+2130620D01*
X-8539750Y+2115380D01*
X-8555625Y+2100140D01*
X-8635000Y+2100140D01*
X-8555625Y+2100140D02*
X-8539750Y+2084900D01*
X-8539750Y+2054420D01*
X-8412750Y+2130620D02*
X-8428625Y+2145860D01*
X-8476250Y+2145860D01*
X-8492125Y+2130620D01*
X-8492125Y+2069660D01*
X-8476250Y+2054420D01*
X-8428625Y+2054420D01*
X-8412750Y+2069660D01*
X-8412750Y+2084900D01*
X-8428625Y+2100140D01*
X-8492125Y+2100140D01*
X-7750000Y-123000D02*
X-7750000Y+4000D01*
X-7813500Y+4000D02*
X-7686500Y+4000D01*
X-7686500Y+512000D01*
X-7813500Y+512000D01*
X-7813500Y+4000D01*
X-7750000Y+512000D02*
X-7750000Y+639000D01*
X-7854140Y+131000D02*
X-7945580Y+131000D01*
X-7945580Y+210375D01*
X-7930340Y+226250D01*
X-7915100Y+226250D01*
X-7899860Y+210375D01*
X-7899860Y+131000D01*
X-7899860Y+210375D02*
X-7884620Y+226250D01*
X-7854140Y+226250D01*
X-7899860Y+289750D02*
X-7915100Y+273875D01*
X-7930340Y+273875D01*
X-7945580Y+289750D01*
X-7945580Y+337375D01*
X-7930340Y+353250D01*
X-7915100Y+353250D01*
X-7899860Y+337375D01*
X-7899860Y+289750D01*
X-7884620Y+273875D01*
X-7869380Y+273875D01*
X-7854140Y+289750D01*
X-7854140Y+337375D01*
X-7869380Y+353250D01*
X-7884620Y+353250D01*
X-7899860Y+337375D01*
X-8127000Y+750000D02*
X-8254000Y+750000D01*
X-8762000Y+686500D02*
X-8254000Y+686500D01*
X-8254000Y+813500D01*
X-8762000Y+813500D01*
X-8762000Y+686500D01*
X-8762000Y+750000D02*
X-8889000Y+750000D01*
X-8635000Y+554420D02*
X-8635000Y+645860D01*
X-8555625Y+645860D01*
X-8539750Y+630620D01*
X-8539750Y+615380D01*
X-8555625Y+600140D01*
X-8635000Y+600140D01*
X-8555625Y+600140D02*
X-8539750Y+584900D01*
X-8539750Y+554420D01*
X-8412750Y+615380D02*
X-8428625Y+600140D01*
X-8476250Y+600140D01*
X-8492125Y+615380D01*
X-8492125Y+630620D01*
X-8476250Y+645860D01*
X-8428625Y+645860D01*
X-8412750Y+630620D01*
X-8412750Y+569660D01*
X-8428625Y+554420D01*
X-8476250Y+554420D01*
X-8504000Y+1881000D02*
X-8377000Y+1881000D01*
X-8377000Y+1373000D01*
X-8885000Y+1373000D01*
X-8885000Y+1881000D01*
X-8758000Y+1881000D01*
X-8631000Y+1754000D02*
X-8605124Y+1756436D01*
X-8581152Y+1763485D01*
X-8559562Y+1774762D01*
X-8540830Y+1789878D01*
X-8525431Y+1808446D01*
X-8513842Y+1830081D01*
X-8506540Y+1854394D01*
X-8504000Y+1881000D01*
X-8631000Y+1754000D02*
X-8657606Y+1756436D01*
X-8681919Y+1763485D01*
X-8703554Y+1774762D01*
X-8722122Y+1789878D01*
X-8737238Y+1808446D01*
X-8748515Y+1830081D01*
X-8755564Y+1854394D01*
X-8758000Y+1881000D01*
X-8758000Y+2013080D02*
X-8758000Y+1936880D01*
X-8742125Y+1921640D01*
X-8678625Y+1921640D01*
X-8662750Y+1936880D01*
X-8662750Y+2013080D01*
X-8615125Y+1997840D02*
X-8599250Y+2013080D01*
X-8551625Y+2013080D01*
X-8535750Y+1997840D01*
X-8535750Y+1982600D01*
X-8551625Y+1967360D01*
X-8599250Y+1967360D01*
X-8615125Y+1952120D01*
X-8615125Y+1921640D01*
X-8535750Y+1921640D01*
X-8504000Y+381000D02*
X-8377000Y+381000D01*
X-8377000Y-127000D01*
X-8885000Y-127000D01*
X-8885000Y+381000D01*
X-8758000Y+381000D01*
X-8631000Y+254000D02*
X-8605124Y+256436D01*
X-8581152Y+263485D01*
X-8559562Y+274762D01*
X-8540830Y+289878D01*
X-8525431Y+308446D01*
X-8513842Y+330081D01*
X-8506540Y+354394D01*
X-8504000Y+381000D01*
X-8631000Y+254000D02*
X-8657606Y+256436D01*
X-8681919Y+263485D01*
X-8703554Y+274762D01*
X-8722122Y+289878D01*
X-8737238Y+308446D01*
X-8748515Y+330081D01*
X-8755564Y+354394D01*
X-8758000Y+381000D01*
X-8758000Y+513080D02*
X-8758000Y+436880D01*
X-8742125Y+421640D01*
X-8678625Y+421640D01*
X-8662750Y+436880D01*
X-8662750Y+513080D01*
X-8615125Y+497840D02*
X-8599250Y+513080D01*
X-8551625Y+513080D01*
X-8535750Y+497840D01*
X-8535750Y+482600D01*
X-8551625Y+467360D01*
X-8535750Y+452120D01*
X-8535750Y+436880D01*
X-8551625Y+421640D01*
X-8599250Y+421640D01*
X-8615125Y+436880D01*
X-8583375Y+467360D02*
X-8551625Y+467360D01*
X-9004000Y+4096000D02*
X-7734000Y+4096000D01*
X-7734000Y+4731000D01*
X-9004000Y+4731000D01*
X-9004000Y+4096000D01*
X-9004000Y+4604000D02*
X-7734000Y+4604000D01*
X-8496000Y+4802120D02*
X-8496000Y+4786880D01*
X-8480125Y+4771640D01*
X-8416625Y+4771640D01*
X-8400750Y+4786880D01*
X-8400750Y+4863080D01*
X-8337250Y+4832600D02*
X-8305500Y+4863080D01*
X-8305500Y+4771640D01*
X-9600000Y+4600000D02*
X-9400000Y+4800000D01*
X-5200000Y+4800000D01*
X-5000000Y+4600000D01*
X-5000000Y-400000D01*
X-5200000Y-600000D01*
X-9400000Y-600000D01*
X-9600000Y-400000D01*
X-9600000Y+4600000D01*
M02*
