G04 PROTEUS GERBER X2 FILE*
%TF.GenerationSoftware,Labcenter,Proteus,8.6-SP2-Build23525*%
%TF.CreationDate,2017-06-21T11:24:34+00:00*%
%TF.FileFunction,Copper,L2,Bot*%
%TF.FilePolarity,Positive*%
%TF.Part,Single*%
%FSLAX45Y45*%
%MOMM*%
G01*
%TA.AperFunction,Conductor*%
%ADD10C,0.508000*%
%ADD11C,0.635000*%
%ADD12C,0.254000*%
%TA.AperFunction,SMDPad,CuDef*%
%ADD14R,6.985000X6.985000*%
%ADD15R,2.540000X1.524000*%
%TA.AperFunction,ComponentPad*%
%ADD13C,1.524000*%
%TA.AperFunction,ComponentPad*%
%ADD16C,1.778000*%
%TA.AperFunction,ComponentPad*%
%ADD17R,1.270000X1.270000*%
%ADD18C,1.270000*%
%ADD19C,2.032000*%
%TD.AperFunction*%
G36*
X-5500000Y+3250000D02*
X-5500000Y+3750000D01*
X-5000000Y+3750000D01*
X-5000000Y+3250000D01*
X-5500000Y+3250000D01*
G37*
G36*
X-6000000Y+3904049D02*
X-6234569Y+3904049D01*
X-6234569Y+3053151D01*
X-6000000Y+3053151D01*
X-6000000Y+2404049D01*
X-6234569Y+2404049D01*
X-6234569Y+1553151D01*
X-6000000Y+1553151D01*
X-6000000Y+904049D01*
X-6234569Y+904049D01*
X-6234569Y+515431D01*
X-6250000Y+500000D01*
X-6750000Y+500000D01*
X-6750000Y+750000D01*
X-6677799Y+822201D01*
X-6677799Y+580201D01*
X-6322201Y+580201D01*
X-6322201Y+834199D01*
X-6665801Y+834199D01*
X-6500000Y+1000000D01*
X-6500000Y+1084901D01*
X-6415614Y+1084901D01*
X-6318901Y+1181614D01*
X-6318901Y+1318386D01*
X-6415614Y+1415099D01*
X-6500000Y+1415099D01*
X-6500000Y+1597601D01*
X-6296801Y+1597601D01*
X-6296801Y+1902399D01*
X-6500000Y+1902399D01*
X-6500000Y+2000000D01*
X-6750000Y+2000000D01*
X-6750000Y+2250000D01*
X-6677799Y+2322201D01*
X-6677799Y+2080201D01*
X-6322201Y+2080201D01*
X-6322201Y+2334199D01*
X-6665801Y+2334199D01*
X-6500000Y+2500000D01*
X-6500000Y+2584901D01*
X-6415614Y+2584901D01*
X-6318901Y+2681614D01*
X-6318901Y+2818386D01*
X-6415614Y+2915099D01*
X-6500000Y+2915099D01*
X-6500000Y+3097601D01*
X-6296801Y+3097601D01*
X-6296801Y+3402399D01*
X-6500000Y+3402399D01*
X-6500000Y+3500000D01*
X-6750000Y+3500000D01*
X-6750000Y+4750000D01*
X-6000000Y+4750000D01*
X-6000000Y+3904049D01*
G37*
%LPC*%
G36*
X-6322201Y+3580201D02*
X-6322201Y+3834199D01*
X-6677799Y+3834199D01*
X-6677799Y+3580201D01*
X-6322201Y+3580201D01*
G37*
%LPD*%
G36*
X-5500000Y+1750000D02*
X-5500000Y+2250000D01*
X-5000000Y+2250000D01*
X-5000000Y+1750000D01*
X-5500000Y+1750000D01*
G37*
G36*
X-5500000Y+250000D02*
X-5500000Y+750000D01*
X-5000000Y+750000D01*
X-5000000Y+250000D01*
X-5500000Y+250000D01*
G37*
D10*
X-7750000Y+3766000D02*
X-7750000Y+3738000D01*
X-8238000Y+3250000D01*
X-9000000Y+3250000D02*
X-9000000Y+3750000D01*
X-9016000Y+2250000D02*
X-9016000Y+1817500D01*
X-9012000Y+1754000D01*
X-8250000Y+1754000D02*
X-7826900Y+2177100D01*
X-7750000Y+2266000D01*
X-7250000Y+2156400D02*
X-6627000Y+2156400D01*
X-6500000Y+2207200D01*
X-7250000Y+656400D02*
X-6627000Y+656400D01*
X-6500000Y+707200D01*
X-7250000Y+453200D02*
X-7580043Y+453200D01*
X-7634110Y+399133D01*
X-7750000Y+283243D01*
X-7750000Y-250000D01*
X-7750000Y-296800D01*
X-7250000Y+1953200D02*
X-7580043Y+1953200D01*
X-7634110Y+1899133D01*
X-7750000Y+1783243D01*
X-7750000Y+1250000D01*
X-7750000Y+1203200D01*
X-7750000Y+766000D02*
X-7750000Y+738000D01*
X-8238000Y+250000D01*
X-9012000Y+254000D02*
X-9012000Y+754000D01*
X-7250000Y+1750000D02*
X-7500000Y+1500000D01*
X-7500000Y+1250000D01*
X-7250000Y+3453200D02*
X-7580043Y+3453200D01*
X-7750000Y+3283243D01*
X-7750000Y+2750000D01*
X-7250000Y+3250000D02*
X-7500000Y+3000000D01*
X-7500000Y+2750000D01*
X-7250000Y+250000D02*
X-7500000Y+0D01*
X-7500000Y-250000D01*
X-7250000Y+3250000D02*
X-6500000Y+3250000D01*
X-7250000Y+3656400D02*
X-6627000Y+3656400D01*
X-6500000Y+3707200D01*
X-8734000Y+2250000D02*
X-8000000Y+2250000D01*
X-7984000Y+3750000D02*
X-8500000Y+3750000D01*
X-8734000Y+3516000D01*
X-8734000Y+2250000D01*
X-8734000Y+1000000D01*
X-8484000Y+750000D01*
X-8000000Y+750000D01*
X-7250000Y+250000D02*
X-6500000Y+250000D01*
X-7250000Y+1750000D02*
X-6500000Y+1750000D01*
X-7984000Y+3750000D02*
X-7984000Y+4248400D01*
X-7988000Y+4350000D01*
X-8750000Y+4350000D02*
X-9050000Y+4350000D01*
X-9400000Y+4000000D01*
X-9400000Y+200000D01*
X-9200000Y+0D01*
X-9012000Y+0D01*
X-8496000Y+4350000D02*
X-8746000Y+4100000D01*
X-9100000Y+4100000D01*
X-9300000Y+3900000D01*
X-9300000Y+1700000D01*
X-9100000Y+1500000D01*
X-9012000Y+1500000D01*
X-9000000Y+2996000D02*
X-9200000Y+3196000D01*
X-9200000Y+3800000D01*
X-9050000Y+3950000D01*
X-8600000Y+3950000D01*
X-8242000Y+4308000D01*
X-8242000Y+4350000D01*
D11*
X-5500000Y+3250000D02*
X-5500000Y+3750000D01*
X-5000000Y+3750000D01*
X-5000000Y+3250000D01*
X-5500000Y+3250000D01*
D10*
X-6000000Y+3904049D02*
X-6234569Y+3904049D01*
X-6234569Y+3053151D01*
X-6000000Y+3053151D01*
X-6000000Y+2404049D01*
X-6234569Y+2404049D01*
X-6234569Y+1553151D01*
X-6000000Y+1553151D01*
X-6000000Y+904049D01*
X-6234569Y+904049D01*
X-6234569Y+515431D01*
X-6250000Y+500000D01*
X-6750000Y+500000D01*
X-6750000Y+750000D01*
X-6677799Y+822201D01*
X-6677799Y+580201D01*
X-6322201Y+580201D01*
X-6322201Y+834199D01*
X-6665801Y+834199D01*
X-6500000Y+1000000D01*
X-6500000Y+1084901D01*
X-6415614Y+1084901D01*
X-6318901Y+1181614D01*
X-6318901Y+1318386D01*
X-6415614Y+1415099D01*
X-6500000Y+1415099D01*
X-6500000Y+1597601D01*
X-6296801Y+1597601D01*
X-6296801Y+1902399D01*
X-6500000Y+1902399D01*
X-6500000Y+2000000D01*
X-6750000Y+2000000D01*
X-6750000Y+2250000D01*
X-6677799Y+2322201D01*
X-6677799Y+2080201D01*
X-6322201Y+2080201D01*
X-6322201Y+2334199D01*
X-6665801Y+2334199D01*
X-6500000Y+2500000D01*
X-6500000Y+2584901D01*
X-6415614Y+2584901D01*
X-6318901Y+2681614D01*
X-6318901Y+2818386D01*
X-6415614Y+2915099D01*
X-6500000Y+2915099D01*
X-6500000Y+3097601D01*
X-6296801Y+3097601D01*
X-6296801Y+3402399D01*
X-6500000Y+3402399D01*
X-6500000Y+3500000D01*
X-6750000Y+3500000D01*
X-6750000Y+4750000D01*
X-6000000Y+4750000D01*
X-6000000Y+3904049D01*
X-6322201Y+3580201D02*
X-6322201Y+3834199D01*
X-6677799Y+3834199D01*
X-6677799Y+3580201D01*
X-6322201Y+3580201D01*
D12*
X-6500000Y+3580201D02*
X-6500000Y+3707200D01*
X-6500000Y+3834199D02*
X-6500000Y+3707200D01*
X-6322201Y+3707200D02*
X-6500000Y+3707200D01*
X-6677799Y+3707200D02*
X-6500000Y+3707200D01*
X-6500000Y+2334199D02*
X-6500000Y+2207200D01*
X-6500000Y+2080201D02*
X-6500000Y+2207200D01*
X-6677799Y+2207200D02*
X-6500000Y+2207200D01*
X-6322201Y+2207200D02*
X-6500000Y+2207200D01*
X-6500000Y+580201D02*
X-6500000Y+707200D01*
X-6500000Y+834199D02*
X-6500000Y+707200D01*
X-6322201Y+707200D02*
X-6500000Y+707200D01*
X-6677799Y+707200D02*
X-6500000Y+707200D01*
D11*
X-5500000Y+1750000D02*
X-5500000Y+2250000D01*
X-5000000Y+2250000D01*
X-5000000Y+1750000D01*
X-5500000Y+1750000D01*
X-5500000Y+250000D02*
X-5500000Y+750000D01*
X-5000000Y+750000D01*
X-5000000Y+250000D01*
X-5500000Y+250000D01*
D14*
X-5809120Y+3478600D03*
D15*
X-6500000Y+3250000D03*
X-6500000Y+3707200D03*
D13*
X-7250000Y+3656400D03*
X-7250000Y+3453200D03*
X-7250000Y+3250000D03*
D14*
X-5809120Y+1978600D03*
D15*
X-6500000Y+1750000D03*
X-6500000Y+2207200D03*
D13*
X-7250000Y+2156400D03*
X-7250000Y+1953200D03*
X-7250000Y+1750000D03*
D14*
X-5809120Y+478600D03*
D15*
X-6500000Y+250000D03*
X-6500000Y+707200D03*
D13*
X-7250000Y+656400D03*
X-7250000Y+453200D03*
X-7250000Y+250000D03*
D16*
X-7500000Y+2750000D03*
X-6484000Y+2750000D03*
X-7750000Y+2750000D03*
X-7750000Y+3766000D03*
D17*
X-9000000Y+3250000D03*
D18*
X-9000000Y+2996000D03*
X-8238000Y+2996000D03*
X-8238000Y+3250000D03*
D16*
X-7984000Y+3750000D03*
X-9000000Y+3750000D03*
X-7500000Y+1250000D03*
X-6484000Y+1250000D03*
X-7500000Y-250000D03*
X-6484000Y-250000D03*
X-7750000Y+1250000D03*
X-7750000Y+2266000D03*
X-8000000Y+2250000D03*
X-9016000Y+2250000D03*
X-7750000Y-250000D03*
X-7750000Y+766000D03*
X-8000000Y+750000D03*
X-9016000Y+750000D03*
D17*
X-9012000Y+1754000D03*
D18*
X-9012000Y+1500000D03*
X-8250000Y+1500000D03*
X-8250000Y+1754000D03*
D17*
X-9012000Y+254000D03*
D18*
X-9012000Y+0D03*
X-8250000Y+0D03*
X-8250000Y+254000D03*
D19*
X-8750000Y+4350000D03*
X-8496000Y+4350000D03*
X-8242000Y+4350000D03*
X-7988000Y+4350000D03*
M02*
