G04 PROTEUS GERBER X2 FILE*
%TF.GenerationSoftware,Labcenter,Proteus,8.6-SP2-Build23525*%
%TF.CreationDate,2017-06-21T11:24:34+00:00*%
%TF.FileFunction,Copper,L1,Top*%
%TF.FilePolarity,Positive*%
%TF.Part,Single*%
%FSLAX45Y45*%
%MOMM*%
G01*
%TA.AperFunction,Conductor*%
%ADD10C,0.508000*%
%ADD11C,0.635000*%
%ADD12C,0.254000*%
%TA.AperFunction,ComponentPad*%
%ADD13C,1.524000*%
%TA.AperFunction,SMDPad,CuDef*%
%ADD14R,6.985000X6.985000*%
%ADD15R,2.540000X1.524000*%
%TA.AperFunction,ComponentPad*%
%ADD16C,1.778000*%
%TA.AperFunction,ComponentPad*%
%ADD17R,1.270000X1.270000*%
%ADD18C,1.270000*%
%ADD19C,2.032000*%
%TD.AperFunction*%
G36*
X-5500000Y+3250000D02*
X-5500000Y+3750000D01*
X-5000000Y+3750000D01*
X-5000000Y+3250000D01*
X-5500000Y+3250000D01*
G37*
G36*
X-6000000Y+3904049D02*
X-6234569Y+3904049D01*
X-6234569Y+3053151D01*
X-6000000Y+3053151D01*
X-6000000Y+3000000D01*
X-6500000Y+2500000D01*
X-8250000Y+2500000D01*
X-8250000Y+1893699D01*
X-8307865Y+1893699D01*
X-8389699Y+1811865D01*
X-8389699Y+1696135D01*
X-8307865Y+1614301D01*
X-8192135Y+1614301D01*
X-8110301Y+1696135D01*
X-8110301Y+1750000D01*
X-7402399Y+1750000D01*
X-7402399Y+1686874D01*
X-7313126Y+1597601D01*
X-7186874Y+1597601D01*
X-7097601Y+1686874D01*
X-7097601Y+1744639D01*
X-7092240Y+1750000D01*
X-6750000Y+1750000D01*
X-6677799Y+1822201D01*
X-6677799Y+1623001D01*
X-6322201Y+1623001D01*
X-6322201Y+1876999D01*
X-6623001Y+1876999D01*
X-6500000Y+2000000D01*
X-6250000Y+2000000D01*
X-6250000Y+1250000D01*
X-6500000Y+1000000D01*
X-8250000Y+1000000D01*
X-8250000Y+393699D01*
X-8307865Y+393699D01*
X-8389699Y+311865D01*
X-8389699Y+196135D01*
X-8307865Y+114301D01*
X-8192135Y+114301D01*
X-8110301Y+196135D01*
X-8110301Y+250000D01*
X-7402399Y+250000D01*
X-7402399Y+186874D01*
X-7313126Y+97601D01*
X-7186874Y+97601D01*
X-7097601Y+186874D01*
X-7097601Y+194639D01*
X-7042240Y+250000D01*
X-6750000Y+250000D01*
X-6677799Y+322201D01*
X-6677799Y+123001D01*
X-6322201Y+123001D01*
X-6322201Y+376999D01*
X-6623001Y+376999D01*
X-6500000Y+500000D01*
X-6250000Y+500000D01*
X-6250000Y-250000D01*
X-6500000Y-500000D01*
X-8500000Y-500000D01*
X-8500000Y+3000000D01*
X-8342782Y+3157218D01*
X-8295865Y+3110301D01*
X-8180135Y+3110301D01*
X-8098301Y+3192135D01*
X-8098301Y+3250000D01*
X-7402399Y+3250000D01*
X-7402399Y+3186874D01*
X-7313126Y+3097601D01*
X-7186874Y+3097601D01*
X-7097601Y+3186874D01*
X-7097601Y+3244639D01*
X-7092240Y+3250000D01*
X-6750000Y+3250000D01*
X-6750000Y+3592240D01*
X-6711239Y+3631001D01*
X-6703199Y+3631001D01*
X-6703199Y+3554801D01*
X-6296801Y+3554801D01*
X-6296801Y+3859599D01*
X-6703199Y+3859599D01*
X-6703199Y+3783399D01*
X-6750000Y+3783399D01*
X-6750000Y+4750000D01*
X-6000000Y+4750000D01*
X-6000000Y+3904049D01*
G37*
%LPC*%
G36*
X-6677799Y+3376999D02*
X-6677799Y+3123001D01*
X-6322201Y+3123001D01*
X-6322201Y+3376999D01*
X-6677799Y+3376999D01*
G37*
G36*
X-7334901Y+2818386D02*
X-7334901Y+2681614D01*
X-7431614Y+2584901D01*
X-7568386Y+2584901D01*
X-7625000Y+2641515D01*
X-7681614Y+2584901D01*
X-7818386Y+2584901D01*
X-7915099Y+2681614D01*
X-7915099Y+2818386D01*
X-7818386Y+2915099D01*
X-7681614Y+2915099D01*
X-7625000Y+2858485D01*
X-7568386Y+2915099D01*
X-7431614Y+2915099D01*
X-7334901Y+2818386D01*
G37*
G36*
X-6541865Y+2610301D02*
X-6426135Y+2610301D01*
X-6344301Y+2692135D01*
X-6344301Y+2807865D01*
X-6426135Y+2889699D01*
X-6541865Y+2889699D01*
X-6623699Y+2807865D01*
X-6623699Y+2692135D01*
X-6541865Y+2610301D01*
G37*
G36*
X-8352299Y+3043344D02*
X-8352299Y+2948656D01*
X-8285344Y+2881701D01*
X-8190656Y+2881701D01*
X-8123701Y+2948656D01*
X-8123701Y+3043344D01*
X-8190656Y+3110299D01*
X-8285344Y+3110299D01*
X-8352299Y+3043344D01*
G37*
G36*
X-7334901Y+1318386D02*
X-7334901Y+1181614D01*
X-7431614Y+1084901D01*
X-7568386Y+1084901D01*
X-7625000Y+1141515D01*
X-7681614Y+1084901D01*
X-7818386Y+1084901D01*
X-7915099Y+1181614D01*
X-7915099Y+1318386D01*
X-7818386Y+1415099D01*
X-7681614Y+1415099D01*
X-7625000Y+1358485D01*
X-7568386Y+1415099D01*
X-7431614Y+1415099D01*
X-7334901Y+1318386D01*
G37*
G36*
X-6541865Y+1110301D02*
X-6426135Y+1110301D01*
X-6344301Y+1192135D01*
X-6344301Y+1307865D01*
X-6426135Y+1389699D01*
X-6541865Y+1389699D01*
X-6623699Y+1307865D01*
X-6623699Y+1192135D01*
X-6541865Y+1110301D01*
G37*
G36*
X-7334901Y-181614D02*
X-7334901Y-318386D01*
X-7431614Y-415099D01*
X-7568386Y-415099D01*
X-7625000Y-358485D01*
X-7681614Y-415099D01*
X-7818386Y-415099D01*
X-7915099Y-318386D01*
X-7915099Y-181614D01*
X-7818386Y-84901D01*
X-7681614Y-84901D01*
X-7625000Y-141515D01*
X-7568386Y-84901D01*
X-7431614Y-84901D01*
X-7334901Y-181614D01*
G37*
G36*
X-6541865Y-389699D02*
X-6426135Y-389699D01*
X-6344301Y-307865D01*
X-6344301Y-192135D01*
X-6426135Y-110301D01*
X-6541865Y-110301D01*
X-6623699Y-192135D01*
X-6623699Y-307865D01*
X-6541865Y-389699D01*
G37*
G36*
X-8364299Y+1547344D02*
X-8364299Y+1452656D01*
X-8297344Y+1385701D01*
X-8202656Y+1385701D01*
X-8135701Y+1452656D01*
X-8135701Y+1547344D01*
X-8202656Y+1614299D01*
X-8297344Y+1614299D01*
X-8364299Y+1547344D01*
G37*
G36*
X-8364299Y+47344D02*
X-8364299Y-47344D01*
X-8297344Y-114299D01*
X-8202656Y-114299D01*
X-8135701Y-47344D01*
X-8135701Y+47344D01*
X-8202656Y+114299D01*
X-8297344Y+114299D01*
X-8364299Y+47344D01*
G37*
%LPD*%
G36*
X-5500000Y+1750000D02*
X-5500000Y+2250000D01*
X-5000000Y+2250000D01*
X-5000000Y+1750000D01*
X-5500000Y+1750000D01*
G37*
G36*
X-5500000Y+250000D02*
X-5500000Y+750000D01*
X-5000000Y+750000D01*
X-5000000Y+250000D01*
X-5500000Y+250000D01*
G37*
D10*
X-6484000Y+2750000D02*
X-6484000Y+3234000D01*
X-6500000Y+3250000D01*
X-6484000Y+2750000D02*
X-6921244Y+2750000D01*
X-7089422Y+2918178D01*
X-7167244Y+2996000D01*
X-8238000Y+2996000D01*
X-6500000Y+1250000D02*
X-6937244Y+1250000D01*
X-7183244Y+1496000D01*
X-8254000Y+1496000D01*
X-6484000Y-250000D02*
X-6921244Y-250000D01*
X-7167244Y-4000D01*
X-8238000Y-4000D01*
X-6500000Y+3707200D02*
X-6742800Y+3707200D01*
X-7200000Y+3250000D01*
X-7250000Y+3250000D01*
X-6500000Y+2207200D02*
X-6742800Y+2207200D01*
X-7200000Y+1750000D01*
X-7250000Y+1750000D01*
X-6500000Y+707200D02*
X-6692800Y+707200D01*
X-7150000Y+250000D01*
X-7250000Y+250000D01*
D11*
X-5500000Y+3250000D02*
X-5500000Y+3750000D01*
X-5000000Y+3750000D01*
X-5000000Y+3250000D01*
X-5500000Y+3250000D01*
D10*
X-6000000Y+3904049D02*
X-6234569Y+3904049D01*
X-6234569Y+3053151D01*
X-6000000Y+3053151D01*
X-6000000Y+3000000D01*
X-6500000Y+2500000D01*
X-8250000Y+2500000D01*
X-8250000Y+1893699D01*
X-8307865Y+1893699D01*
X-8389699Y+1811865D01*
X-8389699Y+1696135D01*
X-8307865Y+1614301D01*
X-8192135Y+1614301D01*
X-8110301Y+1696135D01*
X-8110301Y+1750000D01*
X-7402399Y+1750000D01*
X-7402399Y+1686874D01*
X-7313126Y+1597601D01*
X-7186874Y+1597601D01*
X-7097601Y+1686874D01*
X-7097601Y+1744639D01*
X-7092240Y+1750000D01*
X-6750000Y+1750000D01*
X-6677799Y+1822201D01*
X-6677799Y+1623001D01*
X-6322201Y+1623001D01*
X-6322201Y+1876999D01*
X-6623001Y+1876999D01*
X-6500000Y+2000000D01*
X-6250000Y+2000000D01*
X-6250000Y+1250000D01*
X-6500000Y+1000000D01*
X-8250000Y+1000000D01*
X-8250000Y+393699D01*
X-8307865Y+393699D01*
X-8389699Y+311865D01*
X-8389699Y+196135D01*
X-8307865Y+114301D01*
X-8192135Y+114301D01*
X-8110301Y+196135D01*
X-8110301Y+250000D01*
X-7402399Y+250000D01*
X-7402399Y+186874D01*
X-7313126Y+97601D01*
X-7186874Y+97601D01*
X-7097601Y+186874D01*
X-7097601Y+194639D01*
X-7042240Y+250000D01*
X-6750000Y+250000D01*
X-6677799Y+322201D01*
X-6677799Y+123001D01*
X-6322201Y+123001D01*
X-6322201Y+376999D01*
X-6623001Y+376999D01*
X-6500000Y+500000D01*
X-6250000Y+500000D01*
X-6250000Y-250000D01*
X-6500000Y-500000D01*
X-8500000Y-500000D01*
X-8500000Y+3000000D01*
X-8342782Y+3157218D01*
X-8295865Y+3110301D01*
X-8180135Y+3110301D01*
X-8098301Y+3192135D01*
X-8098301Y+3250000D01*
X-7402399Y+3250000D01*
X-7402399Y+3186874D01*
X-7313126Y+3097601D01*
X-7186874Y+3097601D01*
X-7097601Y+3186874D01*
X-7097601Y+3244639D01*
X-7092240Y+3250000D01*
X-6750000Y+3250000D01*
X-6750000Y+3592240D01*
X-6711239Y+3631001D01*
X-6703199Y+3631001D01*
X-6703199Y+3554801D01*
X-6296801Y+3554801D01*
X-6296801Y+3859599D01*
X-6703199Y+3859599D01*
X-6703199Y+3783399D01*
X-6750000Y+3783399D01*
X-6750000Y+4750000D01*
X-6000000Y+4750000D01*
X-6000000Y+3904049D01*
X-6677799Y+3376999D02*
X-6677799Y+3123001D01*
X-6322201Y+3123001D01*
X-6322201Y+3376999D01*
X-6677799Y+3376999D01*
X-7334901Y+2818386D02*
X-7334901Y+2681614D01*
X-7431614Y+2584901D01*
X-7568386Y+2584901D01*
X-7625000Y+2641515D01*
X-7681614Y+2584901D01*
X-7818386Y+2584901D01*
X-7915099Y+2681614D01*
X-7915099Y+2818386D01*
X-7818386Y+2915099D01*
X-7681614Y+2915099D01*
X-7625000Y+2858485D01*
X-7568386Y+2915099D01*
X-7431614Y+2915099D01*
X-7334901Y+2818386D01*
X-6541865Y+2610301D02*
X-6426135Y+2610301D01*
X-6344301Y+2692135D01*
X-6344301Y+2807865D01*
X-6426135Y+2889699D01*
X-6541865Y+2889699D01*
X-6623699Y+2807865D01*
X-6623699Y+2692135D01*
X-6541865Y+2610301D01*
X-8352299Y+3043344D02*
X-8352299Y+2948656D01*
X-8285344Y+2881701D01*
X-8190656Y+2881701D01*
X-8123701Y+2948656D01*
X-8123701Y+3043344D01*
X-8190656Y+3110299D01*
X-8285344Y+3110299D01*
X-8352299Y+3043344D01*
X-7334901Y+1318386D02*
X-7334901Y+1181614D01*
X-7431614Y+1084901D01*
X-7568386Y+1084901D01*
X-7625000Y+1141515D01*
X-7681614Y+1084901D01*
X-7818386Y+1084901D01*
X-7915099Y+1181614D01*
X-7915099Y+1318386D01*
X-7818386Y+1415099D01*
X-7681614Y+1415099D01*
X-7625000Y+1358485D01*
X-7568386Y+1415099D01*
X-7431614Y+1415099D01*
X-7334901Y+1318386D01*
X-6541865Y+1110301D02*
X-6426135Y+1110301D01*
X-6344301Y+1192135D01*
X-6344301Y+1307865D01*
X-6426135Y+1389699D01*
X-6541865Y+1389699D01*
X-6623699Y+1307865D01*
X-6623699Y+1192135D01*
X-6541865Y+1110301D01*
X-7334901Y-181614D02*
X-7334901Y-318386D01*
X-7431614Y-415099D01*
X-7568386Y-415099D01*
X-7625000Y-358485D01*
X-7681614Y-415099D01*
X-7818386Y-415099D01*
X-7915099Y-318386D01*
X-7915099Y-181614D01*
X-7818386Y-84901D01*
X-7681614Y-84901D01*
X-7625000Y-141515D01*
X-7568386Y-84901D01*
X-7431614Y-84901D01*
X-7334901Y-181614D01*
X-6541865Y-389699D02*
X-6426135Y-389699D01*
X-6344301Y-307865D01*
X-6344301Y-192135D01*
X-6426135Y-110301D01*
X-6541865Y-110301D01*
X-6623699Y-192135D01*
X-6623699Y-307865D01*
X-6541865Y-389699D01*
X-8364299Y+1547344D02*
X-8364299Y+1452656D01*
X-8297344Y+1385701D01*
X-8202656Y+1385701D01*
X-8135701Y+1452656D01*
X-8135701Y+1547344D01*
X-8202656Y+1614299D01*
X-8297344Y+1614299D01*
X-8364299Y+1547344D01*
X-8364299Y+47344D02*
X-8364299Y-47344D01*
X-8297344Y-114299D01*
X-8202656Y-114299D01*
X-8135701Y-47344D01*
X-8135701Y+47344D01*
X-8202656Y+114299D01*
X-8297344Y+114299D01*
X-8364299Y+47344D01*
D12*
X-6500000Y+3376999D02*
X-6500000Y+3250000D01*
X-6500000Y+3123001D02*
X-6500000Y+3250000D01*
X-6677799Y+3250000D02*
X-6500000Y+3250000D01*
X-6322201Y+3250000D02*
X-6500000Y+3250000D01*
X-6500000Y+1876999D02*
X-6500000Y+1750000D01*
X-6500000Y+1623001D02*
X-6500000Y+1750000D01*
X-6677799Y+1750000D02*
X-6500000Y+1750000D01*
X-6322201Y+1750000D02*
X-6500000Y+1750000D01*
X-6500000Y+123001D02*
X-6500000Y+250000D01*
X-6500000Y+376999D02*
X-6500000Y+250000D01*
X-6322201Y+250000D02*
X-6500000Y+250000D01*
X-6677799Y+250000D02*
X-6500000Y+250000D01*
X-6623699Y+2750000D02*
X-6484000Y+2750000D01*
X-6344301Y+2750000D02*
X-6484000Y+2750000D01*
X-6484000Y+2610301D02*
X-6484000Y+2750000D01*
X-6484000Y+2889699D02*
X-6484000Y+2750000D01*
X-8238000Y+3110299D02*
X-8238000Y+2996000D01*
X-8238000Y+2881701D02*
X-8238000Y+2996000D01*
X-8352299Y+2996000D02*
X-8238000Y+2996000D01*
X-8123701Y+2996000D02*
X-8238000Y+2996000D01*
X-6623699Y+1250000D02*
X-6484000Y+1250000D01*
X-6344301Y+1250000D02*
X-6484000Y+1250000D01*
X-6484000Y+1110301D02*
X-6484000Y+1250000D01*
X-6484000Y+1389699D02*
X-6484000Y+1250000D01*
X-6623699Y-250000D02*
X-6484000Y-250000D01*
X-6344301Y-250000D02*
X-6484000Y-250000D01*
X-6484000Y-389699D02*
X-6484000Y-250000D01*
X-6484000Y-110301D02*
X-6484000Y-250000D01*
X-8250000Y+1614299D02*
X-8250000Y+1500000D01*
X-8250000Y+1385701D02*
X-8250000Y+1500000D01*
X-8364299Y+1500000D02*
X-8250000Y+1500000D01*
X-8135701Y+1500000D02*
X-8250000Y+1500000D01*
X-8250000Y+114299D02*
X-8250000Y+0D01*
X-8250000Y-114299D02*
X-8250000Y+0D01*
X-8364299Y+0D02*
X-8250000Y+0D01*
X-8135701Y+0D02*
X-8250000Y+0D01*
D11*
X-5500000Y+1750000D02*
X-5500000Y+2250000D01*
X-5000000Y+2250000D01*
X-5000000Y+1750000D01*
X-5500000Y+1750000D01*
X-5500000Y+250000D02*
X-5500000Y+750000D01*
X-5000000Y+750000D01*
X-5000000Y+250000D01*
X-5500000Y+250000D01*
D13*
X-7250000Y+3656400D03*
X-7250000Y+3453200D03*
X-7250000Y+3250000D03*
D14*
X-5809120Y+3478600D03*
D15*
X-6500000Y+3707200D03*
X-6500000Y+3250000D03*
D14*
X-5809120Y+1978600D03*
D15*
X-6500000Y+2207200D03*
X-6500000Y+1750000D03*
D13*
X-7250000Y+2156400D03*
X-7250000Y+1953200D03*
X-7250000Y+1750000D03*
D14*
X-5809120Y+478600D03*
D15*
X-6500000Y+707200D03*
X-6500000Y+250000D03*
D13*
X-7250000Y+656400D03*
X-7250000Y+453200D03*
X-7250000Y+250000D03*
D16*
X-7500000Y+2750000D03*
X-6484000Y+2750000D03*
X-7750000Y+2750000D03*
X-7750000Y+3766000D03*
D17*
X-9000000Y+3250000D03*
D18*
X-9000000Y+2996000D03*
X-8238000Y+2996000D03*
X-8238000Y+3250000D03*
D16*
X-7984000Y+3750000D03*
X-9000000Y+3750000D03*
X-7500000Y+1250000D03*
X-6484000Y+1250000D03*
X-7500000Y-250000D03*
X-6484000Y-250000D03*
X-7750000Y+1250000D03*
X-7750000Y+2266000D03*
X-8000000Y+2250000D03*
X-9016000Y+2250000D03*
X-7750000Y-250000D03*
X-7750000Y+766000D03*
X-8000000Y+750000D03*
X-9016000Y+750000D03*
D17*
X-9012000Y+1754000D03*
D18*
X-9012000Y+1500000D03*
X-8250000Y+1500000D03*
X-8250000Y+1754000D03*
D17*
X-9012000Y+254000D03*
D18*
X-9012000Y+0D03*
X-8250000Y+0D03*
X-8250000Y+254000D03*
D19*
X-8750000Y+4350000D03*
X-8496000Y+4350000D03*
X-8242000Y+4350000D03*
X-7988000Y+4350000D03*
M02*
